# xmcd
#
# Track frame offsets:
# 150
# 16521
# 30877
# 48270
# 66318
# 80073
# 96441
# 111963
# 128123
# 141727
# 153487
# 178608
# 194830
# 211117
# 224364
# 239809
# 252715
# 268090
# 284469
# 300712
#
# Disc length: 4256 seconds
#
#
# Revision: 1
# Processed by: cddbd v1.5.2PL0 Copyright (c) Steve Scherf et al.
# Submitted via: FreeRIP 2.944 
#
DISCID=39109e14
DTITLE=Gino and Geno - O Melhor de Gino and Geno
DYEAR=2004
DGENRE=Country
TTITLE0=Ela Chorou de Amor
TTITLE1=Tché, Tché, Tché, Tché
TTITLE2=Vou Beber Veneno
TTITLE3=É Carro
TTITLE4=Nós Enxerga Mais Não Quebra
TTITLE5=Pra Salvar Minha Vida
TTITLE6=O Que É Que Eu Tô Fazendo Aqui
TTITLE7=Mete o Dedo
TTITLE8=Cabelo de Samambaia
TTITLE9=A Viola Chorou
TTITLE10=Paixão Mineira
TTITLE11=Ela Pensa Que Vai Esquecer
TTITLE12=Troféu de Dor
TTITLE13=O Bem Intencionado
TTITLE14=Telefone no Ar
TTITLE15=Foi Uma Noite Só
TTITLE16=Só Você
TTITLE17=Bate a Bota no Chão
TTITLE18=Pinga na Garganta
TTITLE19=Apaixonado Por Você
EXTD=
EXTT0=
EXTT1=
EXTT2=
EXTT3=
EXTT4=
EXTT5=
EXTT6=
EXTT7=
EXTT8=
EXTT9=
EXTT10=
EXTT11=
EXTT12=
EXTT13=
EXTT14=
EXTT15=
EXTT16=
EXTT17=
EXTT18=
EXTT19=
PLAYORDER=
